<?xml version="1.0" encoding="UTF-8"?> <svg xmlns="http://www.w3.org/2000/svg" width="524" height="136" viewBox="0 0 524 136" fill="none"> <path d="M420.574 114.361C422.202 115.226 423.432 116.339 424.263 117.702C425.094 119.031 425.51 120.56 425.51 122.289C425.51 124.183 425.061 125.879 424.163 127.374C423.299 128.837 422.02 130 420.324 130.865C418.629 131.729 416.602 132.161 414.242 132.161H398.586V97.2598H414.192C416.452 97.2598 418.396 97.6753 420.025 98.5062C421.654 99.3372 422.884 100.467 423.715 101.897C424.579 103.326 425.011 104.938 425.011 106.733C425.011 108.395 424.645 109.874 423.914 111.17C423.183 112.467 422.069 113.53 420.574 114.361ZM413.942 112.517C415.937 112.517 417.433 112.051 418.43 111.12C419.46 110.157 419.975 108.777 419.975 106.982C419.975 103.559 417.964 101.847 413.942 101.847H403.572V112.517H413.942ZM413.992 127.574C416.053 127.574 417.615 127.108 418.679 126.178C419.743 125.247 420.274 123.884 420.274 122.089C420.274 120.361 419.743 119.065 418.679 118.2C417.615 117.303 416.053 116.854 413.992 116.854H403.572V127.574H413.992Z" fill="#171919"></path> <path d="M374.926 132.659C372.067 132.659 369.474 132.028 367.148 130.765C364.854 129.468 363.043 127.69 361.713 125.43C360.384 123.17 359.719 120.66 359.719 117.901V97.2598H364.705V117.901C364.705 119.763 365.153 121.458 366.051 122.987C366.948 124.516 368.161 125.712 369.69 126.577C371.253 127.441 372.998 127.873 374.926 127.873C376.854 127.873 378.582 127.441 380.111 126.577C381.673 125.712 382.903 124.516 383.8 122.987C384.698 121.458 385.147 119.763 385.147 117.901V97.2598H390.133V117.901C390.133 120.66 389.468 123.17 388.138 125.43C386.809 127.69 384.98 129.468 382.654 130.765C380.36 132.028 377.784 132.659 374.926 132.659Z" fill="#171919"></path> <path d="M351.23 97.2598V132.161H346.244V117.104H326.3V132.161H321.314V97.2598H326.3V112.317H346.244V97.2598H351.23Z" fill="#171919"></path> <path d="M505.734 70.9777H499.203V85.4367H494.217V50.5356H509.474C511.8 50.5356 513.795 50.9844 515.457 51.8818C517.152 52.746 518.432 53.9593 519.296 55.5215C520.193 57.0505 520.642 58.7956 520.642 60.7567C520.642 63.3826 519.861 65.6262 518.299 67.4876C516.736 69.3157 514.543 70.4293 511.717 70.8281L523.334 85.4367H517.052L505.734 70.9777ZM499.203 66.4406H509.174C511.169 66.4406 512.698 65.9586 513.761 64.9947C514.858 63.9975 515.407 62.5848 515.407 60.7567C515.407 58.9285 514.858 57.5325 513.761 56.5685C512.698 55.5714 511.169 55.0728 509.174 55.0728H499.203V66.4406Z" fill="#171919"></path> <path d="M468.283 55.2224V65.6428H485.235V70.3295H468.283V80.75H486.73V85.4367H463.297V50.5356H486.73V55.2224H468.283Z" fill="#171919"></path> <path d="M437.365 55.2224V65.6428H454.317V70.3295H437.365V80.75H455.812V85.4367H432.379V50.5356H455.812V55.2224H437.365Z" fill="#171919"></path> <path d="M409.812 70.9777H403.281V85.4367H398.295V50.5356H413.552C415.878 50.5356 417.873 50.9844 419.535 51.8818C421.23 52.746 422.51 53.9593 423.374 55.5215C424.271 57.0505 424.72 58.7956 424.72 60.7567C424.72 63.3826 423.939 65.6262 422.377 67.4876C420.814 69.3157 418.621 70.4293 415.795 70.8281L427.412 85.4367H421.13L409.812 70.9777ZM403.281 66.4406H413.253C415.247 66.4406 416.776 65.9586 417.84 64.9947C418.936 63.9975 419.485 62.5848 419.485 60.7567C419.485 58.9285 418.936 57.5325 417.84 56.5685C416.776 55.5714 415.247 55.0728 413.253 55.0728H403.281V66.4406Z" fill="#171919"></path> <path d="M384.147 77.4593H365.301L361.86 85.4367H356.426L372.081 50.5356H377.666L393.321 85.4367H387.587L384.147 77.4593ZM382.203 72.8723L374.774 55.6711L367.295 72.8723H382.203Z" fill="#171919"></path> <path d="M321.314 67.9845C321.314 64.6606 322.096 61.6359 323.658 58.9102C325.253 56.1514 327.414 53.9909 330.139 52.4286C332.865 50.8331 335.89 50.0354 339.214 50.0354C341.773 50.0354 344.166 50.534 346.393 51.5312C348.62 52.4951 350.532 53.8911 352.127 55.7193C353.756 57.5142 354.952 59.6083 355.717 62.0015H350.183C349.152 59.7745 347.69 58.0294 345.795 56.7663C343.934 55.47 341.74 54.8218 339.214 54.8218C336.854 54.8218 334.71 55.4035 332.782 56.5669C330.854 57.7303 329.325 59.3257 328.195 61.3533C327.098 63.3477 326.55 65.5581 326.55 67.9845C326.55 70.411 327.098 72.638 328.195 74.6656C329.325 76.6599 330.854 78.2388 332.782 79.4022C334.71 80.5655 336.854 81.1472 339.214 81.1472C341.74 81.1472 343.934 80.5157 345.795 79.2526C347.69 77.9563 349.152 76.1946 350.183 73.9676H355.717C354.952 76.3608 353.756 78.4715 352.127 80.2996C350.532 82.0945 348.62 83.4906 346.393 84.4877C344.166 85.4517 341.773 85.9336 339.214 85.9336C335.89 85.9336 332.865 85.1525 330.139 83.5903C327.414 81.9948 325.253 79.8343 323.658 77.1087C322.096 74.3498 321.314 71.3084 321.314 67.9845Z" fill="#171919"></path> <path d="M361.466 8.5794H349.001V38.694H344.015V8.5794H331.551V3.79297H361.466V8.5794Z" fill="#171919"></path> <path d="M326.3 3.79297V38.694H321.314V3.79297H326.3Z" fill="#171919"></path> <path d="M102.208 136C66.5147 136 34.9766 108.995 34.9766 68.2027C34.9766 27.0331 66.7036 0.0273438 101.83 0.0273438C123.17 0.0273438 142.055 8.52566 154.897 26.2777L137.712 41.5746C129.591 28.1662 116.749 22.1229 102.208 22.1229C78.7901 22.1229 58.2053 39.875 58.2053 68.2027C58.2053 96.1526 79.1678 113.905 102.208 113.905C117.316 113.905 129.591 106.351 137.712 93.8864L155.653 108.428C143.377 126.747 123.926 136 102.208 136Z" fill="#171919"></path> <path d="M0.269531 134.112V1.91602H22.7428V134.112H0.269531Z" fill="#171919"></path> <rect x="202.578" y="77.668" width="10" height="45.0078" transform="rotate(90 202.578 77.668)" fill="#C4FD34"></rect> <path d="M250.042 134.112V77.6454H203.585L190.743 134.112H168.27L181.111 77.6454H168.27V56.3052H186.022L198.486 1.91602H220.959L208.495 56.3052H250.042V1.91602H272.515V134.112H250.042Z" fill="#C4FD34"></path> <path d="M239.343 134.112V77.6454H192.885L180.044 134.112H157.57L170.412 77.6454H157.57V56.3052H175.322L187.787 1.91602H210.26L197.796 56.3052H239.343V1.91602H261.816V134.112H239.343Z" fill="#171919"></path> <rect x="239.328" y="77.668" width="10" height="45.0078" transform="rotate(90 239.328 77.668)" fill="#C4FD34"></rect> </svg> 